<svg width="18" height="21" viewBox="0 0 18 21" fill="none" xmlns="http://www.w3.org/2000/svg">
<path d="M16.4163 19.2501L15.9634 18.1126C15.7344 17.5355 15.3785 17.0179 14.923 16.596L14.8402 16.5197C14.1233 15.8545 13.1812 15.4844 12.2029 15.4844H5.71467C4.73638 15.4844 3.79432 15.8545 3.07613 16.5184L2.99331 16.596C2.53781 17.0179 2.18325 17.5355 1.95291 18.1126L1.5 19.2501" stroke="white" stroke-width="2.25" stroke-linecap="round" stroke-linejoin="round"/>
<path d="M12.1614 2.57655C13.9301 4.34529 13.9301 7.21296 12.1614 8.98169C10.3926 10.7504 7.52498 10.7504 5.75624 8.98169C3.9875 7.21296 3.9875 4.34529 5.75624 2.57655C7.52498 0.807816 10.3926 0.807816 12.1614 2.57655" stroke="white" stroke-width="2.25" stroke-linecap="round" stroke-linejoin="round"/>
</svg>
